<svg xmlns="http://www.w3.org/2000/svg" xmlns:xlink="http://www.w3.org/1999/xlink" version="1.1" style="" xml:space="preserve" width="512" height="512"><rect id="backgroundrect" width="100%" height="100%" x="0" y="0" fill="none" stroke="none"/>

















<g class="currentLayer" style=""><title>Layer 1</title><path fill="" fill-opacity="1" stroke="none" stroke-opacity="1" stroke-width="1" stroke-dasharray="none" stroke-linejoin="miter" stroke-linecap="butt" stroke-dashoffset="" fill-rule="nonzero" opacity="1" marker-start="" marker-mid="" marker-end="" d="M24.016390800476074,257.0601119399071 C24.016390800476074,132.1982334868684 125.37826925351476,31.060111939907074 250.51639080047607,31.060111939907074 C375.6545123474374,31.060111939907074 477.0163908004761,132.1982334868684 477.0163908004761,257.0601119399071 C477.0163908004761,381.92199039294576 375.6545123474374,483.0601119399071 250.51639080047607,483.0601119399071 C125.37826925351476,483.0601119399071 24.016390800476074,381.92199039294576 24.016390800476074,257.0601119399071 z" id="svg_22" class=""/><g id="svg_1" class="selected" fill="#ffffff" fill-opacity="1">
	<g id="svg_2" fill="#ffffff" fill-opacity="1">
		<path d="M491.29455194807053,156.427 c-19.471,-45.946 -51.936,-85.013 -92.786,-112.637 C357.6705519480705,16.166 308.3465519480705,-0.007000000000000002 255.45355194807053,0 c-35.254,-0.0020000000000000005 -68.946,7.18 -99.571,20.158 C109.93755194807052,39.63 70.86955194807052,72.093 43.24455194807052,112.943 C15.620551948070528,153.779 -0.5534480519294739,203.104 -0.5464480519294739,256 c-0.0020000000000000005,35.255 7.181,68.948 20.159,99.573 c19.471,45.946 51.937,85.013 92.786,112.637 C153.2365519480705,495.834 202.56055194807053,512.007 255.45355194807053,512 c35.253,0.0020000000000000005 68.946,-7.18 99.571,-20.158 c45.945,-19.471 85.013,-51.935 112.638,-92.785 C495.28755194807053,358.22 511.4605519480705,308.894 511.4535519480705,256 C511.4555519480705,220.744 504.27255194807054,187.052 491.29455194807053,156.427 zM459.86655194807054,342.257 c-16.851,39.781 -45.045,73.723 -80.476,97.676 c-35.443,23.953 -78.02,37.926 -123.936,37.933 c-30.619,-0.0020000000000000005 -59.729,-6.218 -86.255,-17.454 c-39.781,-16.851 -73.724,-45.044 -97.677,-80.475 C47.56755194807052,344.495 33.59355194807053,301.917 33.58655194807053,256 c0.0020000000000000005,-30.62 6.219,-59.731 17.454,-86.257 c16.851,-39.781 45.045,-73.724 80.476,-97.676 C166.95955194807053,48.113 209.53755194807053,34.14 255.45355194807053,34.133 c30.619,0.0020000000000000005 59.729,6.218 86.255,17.454 c39.781,16.85 73.724,45.044 97.677,80.475 c23.953,35.443 37.927,78.02 37.934,123.939 C477.3175519480705,286.62 471.10155194807055,315.731 459.86655194807054,342.257 z" id="svg_3" fill="#ffffff" fill-opacity="1"/>
	</g>
</g><g id="svg_4" class="" fill="#ffcf00" fill-opacity="1">
	<g id="svg_5" fill="#ffcf00" fill-opacity="1">
		<path d="M389.594,238.7545519480705 H272.699 V121.85955194807053 c0,-9.222 -7.477,-16.699 -16.699,-16.699 c-9.222,0 -16.699,7.477 -16.699,16.699 v116.895 H122.406 c-9.222,0 -16.699,7.477 -16.699,16.699 s7.477,16.699 16.699,16.699 h116.895 v116.895 c0,9.222 7.477,16.699 16.699,16.699 c9.222,0 16.699,-7.477 16.699,-16.699 V272.15255194807054 h116.895 c9.222,0 16.699,-7.477 16.699,-16.699 S398.817,238.7545519480705 389.594,238.7545519480705 z" id="svg_6" fill="#ffcf00" fill-opacity="1"/>
	</g>
</g><g id="svg_7">
</g><g id="svg_8">
</g><g id="svg_9">
</g><g id="svg_10">
</g><g id="svg_11">
</g><g id="svg_12">
</g><g id="svg_13">
</g><g id="svg_14">
</g><g id="svg_15">
</g><g id="svg_16">
</g><g id="svg_17">
</g><g id="svg_18">
</g><g id="svg_19">
</g><g id="svg_20">
</g><g id="svg_21">
</g><path fill="" fill-opacity="1" stroke="none" stroke-opacity="1" stroke-width="1" stroke-dasharray="none" stroke-linejoin="miter" stroke-linecap="butt" stroke-dashoffset="" fill-rule="nonzero" opacity="1" marker-start="" marker-mid="" marker-end="" d="M-173,235 C-173,235 -173,235 -173,235 C-173,235 -173,235 -173,235 C-173,235 -173,235 -173,235 C-173,235 -173,235 -173,235 Z" id="svg_30"/></g></svg>