<svg xmlns="http://www.w3.org/2000/svg" width="22" height="22"><rect id="backgroundrect" width="100%" height="100%" x="0" y="0" fill="none" stroke="none"/><g class="currentLayer" style=""><title>Layer 1</title><path d="M11,22 A11,11 0 1 0 0,11 A11.013,11.013 0 0 0 11,22 zM11,2 a9,9 0 1 1 -9,9 A9.01,9.01 0 0 1 11,2 zM7.292999999999999,13.293 L9.586,11 L7.292999999999999,8.707 A1,1 0 0 1 8.707,7.292999999999999 L11,9.586 l2.293,-2.293 a1,1 0 0 1 1.4140000000000001,1.4140000000000001 L12.414,11 l2.293,2.293 a1,1 0 1 1 -1.4140000000000001,1.4140000000000001 L11,12.414 L8.707,14.707 a1,1 0 0 1 -1.4140000000000001,-1.4140000000000001 z" id="svg_1" class="selected" fill-opacity="1" fill="#ffffff"/></g></svg>